<?xml version="1.0" encoding="UTF-8" standalone="no"?>
<!-- Created with Inkscape (http://www.inkscape.org/) -->

<svg
   xmlns:dc="http://purl.org/dc/elements/1.1/"
   xmlns:cc="http://creativecommons.org/ns#"
   xmlns:rdf="http://www.w3.org/1999/02/22-rdf-syntax-ns#"
   xmlns:svg="http://www.w3.org/2000/svg"
   xmlns="http://www.w3.org/2000/svg"
   xmlns:sodipodi="http://sodipodi.sourceforge.net/DTD/sodipodi-0.dtd"
   xmlns:inkscape="http://www.inkscape.org/namespaces/inkscape"
   width="210mm"
   height="297mm"
   viewBox="0 0 210 297"
   version="1.1"
   id="svg8"
   inkscape:version="0.92.4 (5da689c313, 2019-01-14)"
   sodipodi:docname="moe.svg">
  <defs
     id="defs2" />
  <sodipodi:namedview
     id="base"
     pagecolor="#ffffff"
     bordercolor="#666666"
     borderopacity="1.0"
     inkscape:pageopacity="0.0"
     inkscape:pageshadow="2"
     inkscape:zoom="1.4"
     inkscape:cx="442.92718"
     inkscape:cy="928.48503"
     inkscape:document-units="mm"
     inkscape:current-layer="layer1"
     showgrid="false"
     showguides="true"
     inkscape:guide-bbox="true"
     inkscape:window-width="1920"
     inkscape:window-height="1001"
     inkscape:window-x="-9"
     inkscape:window-y="-9"
     inkscape:window-maximized="1" />
  <metadata
     id="metadata5">
    <rdf:RDF>
      <cc:Work
         rdf:about="">
        <dc:format>image/svg+xml</dc:format>
        <dc:type
           rdf:resource="http://purl.org/dc/dcmitype/StillImage" />
        <dc:title />
      </cc:Work>
    </rdf:RDF>
  </metadata>
  <g
     inkscape:label="Vrstva 1"
     inkscape:groupmode="layer"
     id="layer1">
    <g
       aria-label="月 + 日 + 艹 = 萌"
       transform="matrix(0.26458333,0,0,0.26458333,26.052562,0.33807424)"
       style="font-style:normal;font-weight:normal;font-size:40px;line-height:1.25;font-family:sans-serif;letter-spacing:0px;word-spacing:0px;fill:#000000;fill-opacity:1;stroke:none"
       id="flowRoot4518-3" />
    <g
       id="g4677"
       transform="translate(-37.986608,1.8668268)">
      <g
         id="flowRoot4518"
         style="font-style:normal;font-weight:normal;font-size:40px;line-height:1.25;font-family:sans-serif;letter-spacing:0px;word-spacing:0px;fill:#000000;fill-opacity:1;stroke:none"
         transform="matrix(0.26458333,0,0,0.26458333,8.8050421,-11.946152)"
         aria-label="月 + 日 + 艹 = 萌">
        <path
           inkscape:connector-curvature="0"
           id="path4526"
           style="font-size:85.33333588px;fill:#800000"
           d="m 229.61989,257.90049 h -31.66667 q 0,14.33333 -14.66667,27 l -5.66666,-6.33333 q 13.66666,-8.66667 13.66666,-26 v -40.66667 h 45.00001 v 65.66667 q 0,5.33333 -5.66667,5.33333 h -8 l -1.33334,-7.33333 h 7 q 1.33334,0 1.33334,-1.33334 z m -31.66667,-7.33333 h 31.66667 v -12 h -31.66667 z m 0,-19.33334 h 31.66667 v -12 h -31.66667 z" />
      </g>
      <g
         id="flowRoot4518-8"
         style="font-style:normal;font-weight:normal;font-size:40px;line-height:1.25;font-family:sans-serif;letter-spacing:0px;word-spacing:0px;fill:#000000;fill-opacity:1;stroke:none"
         transform="matrix(0.26458333,0,0,0.26458333,21.733639,13.882223)"
         aria-label="月 + 日 + 艹 = 萌">
        <path
           inkscape:connector-curvature="0"
           id="path4528-9"
           style="font-size:85.33333588px"
           d="m 268.56037,154.11477 h -22.70834 v 22.70833 h -6.91666 v -22.70833 h -22.70834 v -6.66667 h 22.70834 v -22.70833 h 6.91666 v 22.70833 h 22.70834 z" />
      </g>
      <g
         id="flowRoot4518-4"
         style="font-style:normal;font-weight:normal;font-size:40px;line-height:1.25;font-family:sans-serif;letter-spacing:0px;word-spacing:0px;fill:#000000;fill-opacity:1;stroke:none"
         transform="matrix(0.26458333,0,0,0.26458333,21.577962,10.442639)"
         aria-label="月 + 日 + 艹 = 萌">
        <path
           inkscape:connector-curvature="0"
           id="path4530-6"
           style="font-size:85.33333588px;fill:#165016"
           d="m 308.78656,195.9481 h -7.66667 v -64.33333 h 52.33334 v 63 h -7.66667 v -4.66667 h -37 z m 37,-39 v -19 h -37 v 19 z m 0,26.66667 v -20.33333 h -37 v 20.33333 z" />
      </g>
      <g
         id="flowRoot4518-6"
         style="font-style:normal;font-weight:normal;font-size:40px;line-height:1.25;font-family:sans-serif;letter-spacing:0px;word-spacing:0px;fill:#000000;fill-opacity:1;stroke:none"
         transform="matrix(0.26458333,0,0,0.26458333,21.321487,-12.009145)"
         aria-label="月 + 日 + 艹 = 萌">
        <path
           inkscape:connector-curvature="0"
           id="path4532"
           style="font-size:85.33333588px"
           d="M 438.72703,251.97191 H 416.0187 v 22.70833 h -6.91667 V 251.97191 H 386.3937 v -6.66667 h 22.70833 v -22.70833 h 6.91667 v 22.70833 h 22.70833 z" />
      </g>
      <g
         id="flowRoot4518-9"
         style="font-style:normal;font-weight:normal;font-size:40px;line-height:1.25;font-family:sans-serif;letter-spacing:0px;word-spacing:0px;fill:#000000;fill-opacity:1;stroke:none"
         transform="matrix(0.26458333,0,0,0.26458333,22.721796,-9.2436211)"
         aria-label="月 + 日 + 艹 = 萌">
        <path
           inkscape:connector-curvature="0"
           id="path4534"
           style="font-size:85.33333588px;fill:#003380"
           d="m 506.23894,224.51953 q 2.66667,0.33334 0.33334,2 v 8 h 20.66666 v 6.33334 h -20.66666 v 10.66666 h -6.66667 v -10.66666 h -16.66667 v 11 h -6.66666 v -11 h -20.66667 v -6.33334 h 20.66667 v -10 h 6.33333 q 2.66667,0.33334 0.33333,2 v 8 h 16.66667 v -10 z" />
      </g>
      <g
         id="flowRoot4518-2"
         style="font-style:normal;font-weight:normal;font-size:40px;line-height:1.25;font-family:sans-serif;letter-spacing:0px;word-spacing:0px;fill:#000000;fill-opacity:1;stroke:none"
         transform="matrix(0.26458333,0,0,0.26458333,24.878088,-12.198135)"
         aria-label="月 + 日 + 艹 = 萌">
        <path
           inkscape:connector-curvature="0"
           id="path4536"
           style="font-size:85.33333588px"
           d="m 592.43538,243.9362 h -49.41666 v -6.66667 h 49.41666 z m 0,17.5 h -49.41666 v -6.66667 h 49.41666 z" />
      </g>
    </g>
    <g
       id="g4728">
      <path
         sodipodi:nodetypes="cccssccccsccscccccccccscccccccccccccccccccc"
         inkscape:connector-curvature="0"
         id="path837"
         d="m 164.25544,44.393449 c -0.27048,-0.158577 -0.6463,-0.867763 -0.83084,-1.567846 -0.076,-0.28837 -0.19671,-0.746662 -0.26819,-1.018428 -0.11901,-0.452429 -0.1653,-0.49412 -0.54863,-0.49412 -0.75574,0 -4.24128,0.490902 -5.39252,0.759481 l -1.12755,0.263052 -0.62645,-0.313325 c -1.87175,-0.936181 -3.36194,-2.604106 -3.13255,-3.506178 0.10671,-0.419705 0.578,-0.377463 1.52582,0.136761 1.32422,0.718442 2.06239,0.84697 4.30055,0.748802 2.33035,-0.102212 4.37605,-0.266678 4.46996,-0.359366 0.0376,-0.03712 -0.0314,-0.574399 -0.15331,-1.193962 -0.2036,-1.034607 -0.27147,-1.18357 -0.83213,-1.826475 -1.00499,-1.152417 -0.95684,-1.500053 0.20752,-1.498118 0.72152,0.0012 1.81794,0.407732 2.69758,1.000213 0.86459,0.582329 0.99067,0.860493 0.95878,2.11516 -0.0148,0.582162 0.0191,1.10409 0.0754,1.159838 0.12791,0.126723 9.59796,-0.649087 9.74955,-0.798705 0.0609,-0.06013 0.23011,-0.816984 0.37599,-1.681899 l 0.26522,-1.572571 -0.36554,-0.676102 c -0.35773,-0.661665 -0.36034,-0.679912 -0.12259,-0.854609 0.49427,-0.363181 1.26392,-0.12962 2.55177,0.77437 0.77128,0.541391 1.27389,1.142103 1.26987,1.517722 -6.6e-4,0.101913 -0.22097,0.685592 -0.48858,1.297065 -0.26763,0.611474 -0.4725,1.126189 -0.45528,1.143811 0.0557,0.05697 4.36102,-0.581877 5.25727,-0.780096 1.0082,-0.22298 1.59941,-0.15934 2.53315,0.272678 1.3181,0.609854 1.85446,1.785073 1.08674,2.381127 -0.31987,0.248346 -0.46722,0.25608 -4.91228,0.257847 -3.39673,0.0014 -4.66349,0.04154 -4.89541,0.155305 -0.18938,0.0929 -0.51049,0.524642 -0.8135,1.093765 -0.77026,1.446749 -1.21993,2.09227 -1.58949,2.281738 -0.43009,0.220503 -0.53788,0.217621 -0.77949,-0.02085 -0.27228,-0.268748 -0.24642,-0.824796 0.0995,-2.139294 l 0.29615,-1.125428 -0.57774,0.0014 c -0.74219,0.0018 -7.16761,0.464666 -7.86796,0.56675 -0.29254,0.04264 -0.53547,0.112911 -0.53982,0.156153 -0.004,0.04324 -0.0502,0.676867 -0.10184,1.408054 -0.0739,1.045854 -0.14829,1.401578 -0.34881,1.667655 -0.28067,0.37243 -0.61298,0.46636 -0.95029,0.268601 z"
         style="fill:#003380;stroke-width:0.12433925" />
      <path
         sodipodi:nodetypes="ccccccsccsccccccccsccsccccsccscccccccccsscccccc"
         inkscape:connector-curvature="0"
         id="path837-0"
         d="m 155.47666,64.104857 c -0.43249,-0.395621 -0.81967,-1.238557 -0.82296,-1.7917 -10e-4,-0.237797 0.083,-0.904859 0.18754,-1.48236 0.13892,-0.76726 0.21134,-2.430472 0.26891,-6.176501 l 0.0788,-5.126496 -0.40152,-0.782777 c -0.71311,-1.390221 -0.41868,-1.595543 1.86577,-1.301124 1.32315,0.170526 1.41868,0.165731 4.08787,-0.205192 2.72995,-0.37937 2.73385,-0.380354 3.44129,-0.867422 0.38953,-0.268191 0.80153,-0.48762 0.91557,-0.48762 0.32617,0 1.96362,0.78849 2.40571,1.158438 0.22003,0.184126 0.43443,0.441633 0.47642,0.572238 0.042,0.130606 -0.0922,0.725741 -0.29824,1.322522 -0.33854,0.980589 -0.38743,1.326551 -0.50771,3.593311 -0.0732,1.37954 -0.13609,3.352932 -0.13974,4.385315 -0.0114,3.216385 -0.16687,5.113688 -0.44977,5.48769 -0.44266,0.5852 -0.57194,0.604626 -1.53692,0.230939 l -0.8882,-0.343951 -2.9709,0.325131 c -1.634,0.178821 -3.13987,0.379428 -3.34638,0.445791 -0.24078,0.07738 -0.52171,0.341519 -0.78317,0.73637 -0.35477,0.535752 -0.46209,0.615706 -0.82651,0.615706 -0.27307,0 -0.53609,-0.107283 -0.75585,-0.308308 z m 5.995,-3.595396 c 1.60203,-0.186174 2.79182,-0.379595 2.84532,-0.462558 0.0506,-0.07842 0.0928,-1.181372 0.0939,-2.451003 l 0.002,-2.308422 -0.40675,0.05488 c -0.22371,0.03019 -1.54077,0.165016 -2.92681,0.299625 -2.88142,0.279838 -3.43062,0.413343 -3.59449,0.873774 -0.0643,0.180725 -0.0732,1.20551 -0.0207,2.38045 l 0.0922,2.063111 0.58105,-0.06495 c 0.31957,-0.03571 1.82006,-0.208931 3.33442,-0.384916 z m -0.31289,-6.846329 c 1.27344,-0.133517 2.5547,-0.274269 2.84725,-0.312782 l 0.5319,-0.07002 v -2.277735 c 0,-2.138192 -0.0143,-2.277736 -0.23277,-2.277736 -1.30782,0 -5.26432,0.555799 -6.04681,0.849441 -0.39529,0.148342 -0.43492,0.347772 -0.55291,2.782783 l -0.0832,1.71751 0.6106,-0.08435 c 0.33583,-0.04639 1.65251,-0.193591 2.92595,-0.327108 z"
         style="fill:#165016;stroke-width:0.12433925" />
      <path
         sodipodi:nodetypes="cccscccccccscccccscssscccscscccscccscccccccccsccc"
         inkscape:connector-curvature="0"
         id="path837-05"
         d="m 181.9897,71.537204 c -0.48684,-0.497975 -1.57485,-1.41945 -2.41777,-2.047724 -2.19814,-1.63834 -2.19316,-1.801307 0.047,-1.539193 0.82601,0.09665 1.72712,0.160267 2.00245,0.14137 l 0.50063,-0.03436 0.0975,-3.088251 c 0.0996,-3.155082 0.0836,-5.050925 -0.0436,-5.176353 -0.1797,-0.177194 -7.98424,0.764736 -8.47223,1.022514 -0.14254,0.0753 -0.33809,0.497644 -0.52326,1.130141 -0.65011,2.220685 -1.92719,4.251846 -3.88167,6.173714 -1.54475,1.51898 -3.20147,2.718218 -4.94853,3.582082 -1.42904,0.706607 -2.06504,0.805773 -2.06504,0.32199 0,-0.222933 0.1621,-0.396446 0.65705,-0.70331 2.64364,-1.639001 5.10758,-4.18664 6.48266,-6.702859 1.12698,-2.062234 1.65504,-4.012663 1.94582,-7.186841 0.22423,-2.447782 0.30356,-8.416659 0.13269,-9.984074 -0.0941,-0.863097 -0.15382,-1.022499 -0.54203,-1.446628 -0.65494,-0.71553 -0.54587,-0.910795 0.53319,-0.954563 0.75219,-0.03051 1.0316,0.02248 1.87391,0.355383 0.89631,0.354243 1.07887,0.384869 1.93063,0.323874 1.53136,-0.10966 5.4519,-0.802303 6.43288,-1.136499 0.50023,-0.170416 1.05229,-0.309846 1.2268,-0.309846 0.55803,0 2.15244,1.250282 2.55275,2.001771 0.16071,0.301699 0.1467,0.427542 -0.14447,1.297065 -0.31126,0.929575 -0.32673,1.121352 -0.44626,5.533559 -0.0853,3.148081 -0.0817,6.012364 0.0116,9.202987 0.20176,6.899516 0.19284,7.570145 -0.11364,8.542872 -0.33876,1.075222 -0.81035,1.586587 -1.46317,1.586587 -0.4333,0 -0.56806,-0.08933 -1.3659,-0.905412 z m -5.21974,-13.303263 c 2.16468,-0.22423 3.6399,-0.438602 4.91403,-0.714091 l 0.43803,-0.09471 0.11075,-1.302602 c 0.0609,-0.716431 0.0705,-1.673401 0.0213,-2.126601 -0.0773,-0.712128 -0.12338,-0.824001 -0.33963,-0.824001 -0.83673,0 -7.47168,1.056407 -7.63567,1.215739 -0.0777,0.07549 -0.2295,1.253913 -0.42023,3.262225 -0.0946,0.996257 -0.42609,0.92976 2.91141,0.584042 z m 1.64285,-6.78665 c 2.02118,-0.335007 3.71075,-0.64502 3.75462,-0.688915 0.14072,-0.140825 0.0728,-3.633896 -0.0734,-3.778267 -0.0977,-0.09643 -0.72792,-0.05702 -2.24409,0.140318 -2.29151,0.29826 -5.40234,0.795909 -5.47215,0.875399 -0.024,0.02729 -0.0761,0.952927 -0.11585,2.056977 -0.0722,2.005394 -0.072,2.007361 0.20189,2.005478 0.15081,-9.79e-4 1.92787,-0.275983 3.94904,-0.61099 z"
         style="fill:#800000;stroke-width:0.12433925" />
    </g>
  </g>
</svg>
