<svg xmlns="http://www.w3.org/2000/svg" viewBox="0 0 265 272" width="265" height="272"><style>tspan { white-space:pre }</style><path fill="#ffffff" d="M0.75 47.3L0.75 25.03L69.89 25.03L69.89 0.42L94.5 0.42L94.5 25.03L170.67 25.03L170.67 0.42L194.11 0.42L194.11 25.03L264.42 25.03L264.42 47.3L194.11 47.3L194.11 68.39L170.67 68.39L170.67 47.3L94.5 47.3L94.5 68.39L69.89 68.39L69.89 47.3L0.75 47.3ZM127.31 73.08L248.02 73.08L248.02 238.31Q248.02 268.78 222.23 268.78L180.05 266.44L175.36 245.34L218.72 247.69Q225.75 247.69 225.75 232.45L225.75 199.64L146.06 199.64Q140.2 238.31 119.11 271.13L98.02 259.41Q127.31 212.53 127.31 157.45L127.31 73.08ZM149.58 94.17L149.58 126.98L225.75 126.98L225.75 94.17L149.58 94.17ZM149.58 146.91L148.41 179.72L225.75 179.72L225.75 146.91L149.58 146.91ZM10.13 81.28L102.7 81.28L102.7 234.8L81.61 234.8L81.61 221.91L32.39 221.91L32.39 245.34L10.13 245.34L10.13 81.28ZM32.39 102.38L32.39 143.39L81.61 143.39L81.61 102.38L32.39 102.38ZM32.39 162.14L32.39 200.81L81.61 200.81L81.61 162.14L32.39 162.14Z" /></svg>